<?xml version="1.0" encoding="UTF-8" standalone="no"?>
<svg
   width="159.38881mm"
   height="100.82623mm"
   viewBox="0 0 159.38881 100.82623"
   version="1.1"
   id="svg1893"
   sodipodi:docname="tukan4.svg"
   inkscape:version="1.1.2 (0a00cf5339, 2022-02-04)"
   xmlns:inkscape="http://www.inkscape.org/namespaces/inkscape"
   xmlns:sodipodi="http://sodipodi.sourceforge.net/DTD/sodipodi-0.dtd"
   xmlns="http://www.w3.org/2000/svg"
   xmlns:svg="http://www.w3.org/2000/svg">
  <defs
     id="defs1897" />
  <sodipodi:namedview
     id="namedview1895"
     pagecolor="#ffffff"
     bordercolor="#666666"
     borderopacity="1.0"
     inkscape:pageshadow="2"
     inkscape:pageopacity="0.0"
     inkscape:pagecheckerboard="0"
     inkscape:document-units="mm"
     showgrid="false"
     inkscape:zoom="0.43651796"
     inkscape:cx="348.21019"
     inkscape:cy="545.22385"
     inkscape:window-width="1366"
     inkscape:window-height="700"
     inkscape:window-x="0"
     inkscape:window-y="0"
     inkscape:window-maximized="1"
     inkscape:current-layer="g1891"
     fit-margin-top="0"
     fit-margin-left="0"
     fit-margin-right="0"
     fit-margin-bottom="0" />
  <g
     stroke-width="0.265"
     id="g1891"
     transform="translate(-31.828145,-88.560228)">
    <path
       fill="#bab64a"
       d="m 118.52,189.35 c -0.146,-0.064 -3.431,-0.152 -7.302,-0.194 -5.46,-0.06 -7.134,-0.157 -7.47,-0.437 -0.24,-0.198 -0.615,-0.291 -0.835,-0.207 -0.29,0.112 -0.4,-0.025 -0.4,-0.5 0,-0.483 -0.142,-0.652 -0.547,-0.652 -0.595,0 -0.594,-0.732 0.012,-8.335 0.223,-2.812 0.192,-3.042 -0.409,-3.042 -0.312,0 -0.354,0.33 -0.225,1.786 0.15,1.714 0.109,1.887 -1.033,4.31 -1.268,2.689 -1.299,3.92 -0.144,5.768 0.835,1.338 -4.268,1.476 -41.046,1.11 -6.767,-0.067 -15.509,-0.082 -19.427,-0.034 -8.983,0.11 -8.813,0.248 -6.588,-5.312 3.448,-8.614 10.668,-15.696 24.618,-24.145 14.39,-8.716 18.597,-13.912 18.595,-22.973 0,-2.307 1.296,-8.953 2.426,-12.439 2.357,-7.268 6.77,-13.27 11.994,-16.313 1.926,-1.121 8.296,-3.996 9.243,-4.17 0.446,-0.083 1.288,-0.59 1.87,-1.129 3.795,-3.508 11.395,-8.265 16.007,-10.019 l 3.205,-1.22 c 6.52,-2.487 17.907,-3.36 26.164,-2.009 5.64,0.924 7.185,1.232 10.716,2.136 4.136,1.06 8.337,2.463 9.922,3.313 1.678,0.899 0.08,0.737 -2.912,-0.296 -5.981,-2.064 -9.491,-2.321 -7.96,-0.582 0.48,0.545 1.023,0.992 1.207,0.992 0.184,0 1.418,0.357 2.743,0.794 1.324,0.436 3.156,0.9 4.07,1.032 0.913,0.132 2.197,0.439 2.852,0.682 0.654,0.243 1.886,0.6 2.737,0.792 0.85,0.192 1.678,0.48 1.839,0.641 0.426,0.426 1.244,0.357 1.244,-0.105 0,-0.986 1.475,-0.419 3.047,1.173 0.853,0.863 1.818,1.712 2.146,1.888 1.316,0.704 6.884,7.89 6.628,8.554 -0.18,0.47 -1.644,0.192 -3.618,-0.69 -4.349,-1.944 -20.283,-4.07 -21.061,-2.811 -0.096,0.154 -1.382,0.23 -3.148,0.185 -1.858,-0.048 -3.122,0.031 -3.345,0.21 -0.9,0.716 -2.208,0.9 -3.545,0.497 -1.234,-0.371 -1.372,-0.361 -2.481,0.176 -0.94,0.455 -1.706,0.576 -3.84,0.605 -1.576,0.022 -2.916,0.173 -3.281,0.371 -0.34,0.184 -1.471,0.371 -2.516,0.416 -1.33,0.057 -2.412,0.297 -3.613,0.803 -1.384,0.582 -1.963,0.691 -3.014,0.567 -1.168,-0.139 -1.39,-0.077 -2.169,0.608 -0.76,0.667 -3.15,1.603 -4.093,1.603 -0.648,0 -3.16,1.392 -3.16,1.751 0,0.554 2.121,0.462 3.767,-0.163 0.765,-0.291 1.749,-0.517 2.185,-0.502 0.794,0.027 0.794,0.027 -0.08,0.234 -1.928,0.457 -1.04,0.568 2.99,0.376 10.426,-0.497 17.596,-0.12 17.596,0.927 0,0.353 -0.884,0.817 -1.555,0.817 -0.292,0 -0.593,0.1 -0.669,0.223 -0.075,0.123 0.483,0.131 1.242,0.019 2.667,-0.394 12.366,-0.475 13.799,-0.115 0.736,0.185 1.993,0.409 2.793,0.496 1.498,0.165 4.365,0.92 4.183,1.103 -0.057,0.057 -1.11,-0.095 -2.341,-0.337 -2.553,-0.502 -6.71,-0.596 -7.143,-0.162 -0.208,0.208 0.052,0.326 0.935,0.426 0.73,0.082 1.464,0.364 1.82,0.698 0.524,0.492 0.912,0.56 3.232,0.56 1.785,0 2.804,0.115 3.158,0.358 0.287,0.197 1.163,0.442 1.948,0.543 2.15,0.278 11.166,2.87 14.713,4.23 0.873,0.335 2.467,0.895 3.543,1.245 3.213,1.044 3.338,1.827 0.161,1.013 -3.236,-0.83 -15.8,-1.652 -22.167,-1.451 -6.874,0.216 -16.573,1.493 -22.124,2.912 -1.513,0.387 -5.383,1.1 -8.599,1.586 -3.216,0.485 -6.145,1.01 -6.509,1.166 -0.364,0.156 -1.97,0.59 -3.572,0.965 -4.451,1.043 -5.953,1.85 -5.953,3.199 0,0.413 -0.234,0.667 -0.793,0.863 -0.437,0.152 -0.794,0.397 -0.794,0.544 0,1.062 -2.192,1.96 -2.807,1.149 -0.323,-0.425 -0.352,-0.427 -0.36,-0.018 -0.005,0.245 -0.246,0.52 -0.537,0.613 -0.377,0.12 -0.53,0.4 -0.53,0.972 0,0.625 -0.093,0.769 -0.418,0.644 a 2.61,2.61 0 0 0 -0.765,-0.16 c -0.19,0 -0.421,-0.298 -0.513,-0.662 -0.091,-0.364 -0.344,-0.662 -0.561,-0.662 -0.218,0 -0.636,-0.148 -0.93,-0.33 -0.402,-0.25 -0.58,-0.255 -0.725,-0.023 -0.261,0.42 -1.034,-0.148 -1.157,-0.849 -0.108,-0.623 -0.633,-1.039 -1.611,-1.277 -0.819,-0.198 -0.914,-0.476 -0.331,-0.96 0.752,-0.624 0.143,-2.515 -0.736,-2.285 -0.276,0.072 -1.194,-0.09 -2.04,-0.36 -3.658,-1.169 -14.025,-0.764 -14.025,0.548 0,0.394 -0.225,1.89 -0.499,3.325 -1.376,7.2 -1.377,7.011 0.05,7.098 1.245,0.075 1.402,0.241 1.02,1.078 -0.425,0.934 -0.384,2.123 0.09,2.597 0.218,0.218 0.397,0.636 0.397,0.929 0,0.293 0.119,0.606 0.265,0.696 0.446,0.276 0.293,1.626 -0.26,2.286 -0.413,0.493 -0.573,0.55 -0.759,0.268 -0.148,-0.224 -0.23,0.34 -0.221,1.522 0.011,1.582 0.084,1.877 0.461,1.877 0.542,0 0.779,0.997 0.779,3.276 0,1.206 0.163,1.93 0.635,2.816 0.349,0.657 0.896,2.084 1.215,3.173 0.63,2.15 2.611,6.61 2.935,6.61 0.408,0 0.83,-1.945 0.672,-3.097 -0.09,-0.654 -0.038,-1.41 0.116,-1.697 0.386,-0.721 0.082,-1.474 -0.67,-1.663 -0.44,-0.11 -0.66,-0.377 -0.719,-0.87 -0.064,-0.543 -0.277,-0.762 -0.9,-0.922 -2.98,-0.767 -1.66,-8.238 1.531,-8.665 0.865,-0.116 1.15,-0.276 1.21,-0.68 0.402,-2.71 1.383,-4.14 1.383,-2.018 0,2.202 1.792,2.219 2.781,0.026 0.807,-1.789 1.085,-0.834 0.382,1.31 -0.336,1.026 -0.536,1.941 -0.444,2.034 0.304,0.303 0.996,-0.139 1.447,-0.923 0.442,-0.77 0.442,-0.77 0.85,0.458 0.311,0.938 0.555,1.25 1.026,1.317 0.508,0.072 0.591,0.202 0.463,0.727 l -0.309,1.273 c -0.289,1.189 1.268,2.565 2.06,1.821 1.246,-1.17 1.912,-0.937 2.063,0.721 0.135,1.492 0.774,0.776 0.803,-0.9 0.025,-1.468 0.765,-1.936 0.775,-0.489 0.009,1.338 0.284,1.75 0.71,1.061 0.137,-0.221 0.253,-0.114 0.358,0.33 0.208,0.88 1.056,1.053 1.061,0.216 0.01,-1.483 0.274,-1.844 1.289,-1.756 0.957,0.083 0.957,0.083 0.94,-1.174 -0.02,-1.581 0.461,-1.66 1.207,-0.198 0.297,0.582 0.648,1.058 0.78,1.058 0.454,0 1.09,-0.85 0.963,-1.285 -0.729,-2.494 -0.201,-3.526 0.706,-1.38 0.57,1.352 1.142,1.656 1.102,0.588 -0.023,-0.632 0.539,-0.768 0.868,-0.21 1.232,2.085 2.26,0.672 1.27,-1.748 -0.151,-0.37 -0.052,-0.463 0.5,-0.463 0.583,0 0.69,-0.117 0.69,-0.757 0,-0.654 0.086,-0.74 0.627,-0.637 0.5,0.096 0.662,-0.018 0.799,-0.566 0.207,-0.826 0.419,-0.852 1.227,-0.15 0.382,0.331 0.71,0.44 0.864,0.287 0.3,-0.3 0.02,-0.823 -0.44,-0.823 -0.183,0 -0.527,-0.407 -0.764,-0.905 -0.488,-1.022 -0.139,-1.64 0.736,-1.305 0.404,0.155 0.444,0.077 0.284,-0.56 -0.178,-0.71 -0.152,-0.734 0.612,-0.581 1.203,0.24 1.26,-0.28 0.157,-1.411 -1.134,-1.16 -1.065,-1.794 0.12,-1.114 1.667,0.956 1.357,-0.55 -0.522,-2.54 -1.249,-1.322 -1.303,-1.438 -0.93,-1.97 0.352,-0.503 0.35,-0.614 -0.029,-1.032 -0.233,-0.258 -0.355,-0.646 -0.272,-0.863 0.084,-0.217 0.033,-1.133 -0.112,-2.035 -0.286,-1.772 0.045,-2.76 0.514,-1.536 0.134,0.352 0.508,0.877 0.831,1.168 0.323,0.291 0.818,0.98 1.1,1.53 0.28,0.552 0.628,0.93 0.772,0.84 0.317,-0.195 7.153,1.303 9.375,2.055 11.91,4.029 13.815,11.434 6.184,24.018 -2.05,3.38 -2.665,4.659 -3.501,7.276 -1.179,3.688 -2.608,7.04 -3.527,8.272 -0.354,0.475 -0.881,1.4 -1.17,2.054 -0.289,0.654 -1.235,2.248 -2.1,3.542 -0.866,1.294 -1.574,2.465 -1.574,2.602 0,1 -1.055,1.256 -5.253,1.277 -2.277,0.011 -5.152,0.098 -6.389,0.194 -1.237,0.095 -2.368,0.12 -2.513,0.056 z m 3.704,-66.546 c 0.582,-0.103 1.773,-0.456 2.646,-0.782 0.873,-0.327 2.101,-0.7 2.73,-0.829 1.315,-0.27 1.636,-0.43 1.636,-0.817 0,-0.267 -0.31,-0.245 -2.646,0.193 -1.17,0.219 -7.234,1.97 -7.4,2.137 -0.28,0.278 0.698,0.618 1.314,0.458 a 28.283,28.283 0 0 1 1.72,-0.36 z m -14.425,-1.188 c 0.893,-0.92 0.893,-0.92 0.234,-1.521 -1.944,-1.772 -1.828,-4.073 0.285,-5.636 1.047,-0.775 1.429,-1.712 0.697,-1.712 -0.207,0 -0.73,0.298 -1.163,0.662 -1.143,0.962 -1.84,0.868 -2.336,-0.317 -0.442,-1.057 -0.143,-2.665 0.612,-3.291 0.478,-0.397 0.448,-0.777 -0.047,-0.587 -0.22,0.084 -0.59,-0.004 -0.822,-0.197 -0.356,-0.295 -0.475,-0.279 -0.754,0.102 -0.182,0.25 -0.556,0.457 -0.831,0.462 -1.573,0.026 -2.2,1.467 -1.275,2.932 0.374,0.593 0.915,2.049 1.201,3.236 1,4.144 1.563,5.695 2.272,6.253 0.882,0.694 0.88,0.694 1.927,-0.386 z m -10.097,-4.6 c 0.723,-0.458 0.734,-4.994 0.017,-6.856 -0.784,-2.035 -0.731,-2.042 -2.108,0.273 -0.627,1.054 -1.593,2.499 -2.147,3.21 -1.299,1.666 -1.326,1.586 0.912,2.647 1.987,0.942 2.73,1.104 3.326,0.726 z m 66.722,-13.19 c 0,-0.044 -0.144,-0.312 -0.32,-0.595 -0.419,-0.67 -0.1,-0.966 0.651,-0.606 1.315,0.63 2.37,0.537 1.933,-0.171 -0.546,-0.884 -5.97,-2.593 -7.688,-2.422 -0.145,0.014 -2.042,0.085 -4.214,0.156 -4.376,0.145 -4.602,0.193 -3.146,0.661 0.556,0.18 1.308,0.474 1.672,0.656 2.238,1.119 2.626,1.113 2.642,-0.04 0.012,-0.938 2.272,-0.188 5.692,1.89 0.863,0.524 2.778,0.85 2.778,0.472 z m 19.58,17.513 c -0.656,-0.195 -2.858,-0.783 -4.896,-1.306 -2.038,-0.523 -4.12,-1.068 -4.63,-1.211 l -4.233,-1.188 c -4.19,-1.174 -4.908,-1.456 -4.45,-1.747 0.627,-0.397 4.795,-0.229 7.096,0.286 2.745,0.615 10.359,3.346 10.542,3.781 0.05,0.119 0.548,0.45 1.106,0.735 1.899,0.968 1.63,1.294 -0.535,0.65 z m -29.767,-6.764 c -0.436,-0.137 -2.311,-0.362 -4.167,-0.5 -1.855,-0.137 -3.581,-0.361 -3.836,-0.497 -0.255,-0.135 -1.386,-0.332 -2.514,-0.437 -1.128,-0.105 -2.05,-0.285 -2.05,-0.4 0,-0.593 9.695,-0.635 10.764,-0.047 0.366,0.202 1.83,0.318 3.993,0.318 3.084,0 3.463,0.052 3.897,0.531 0.644,0.712 0.451,0.833 -1.507,0.942 -0.919,0.051 -2.146,0.149 -2.728,0.217 -0.582,0.067 -1.416,0.01 -1.852,-0.127 z"
       id="path1879" />
    <path
       fill="#6598a0"
       d="m 32.385,188.68 c -2.143,-2.143 5.314,-14.512 12.333,-20.459 1.843,-1.562 8.187,-5.828 13.004,-8.745 14.391,-8.717 18.597,-13.912 18.595,-22.973 0,-2.308 1.296,-8.954 2.426,-12.44 2.357,-7.267 6.77,-13.27 11.994,-16.312 3.577,-2.084 10.451,-4.863 10.451,-4.225 0,0.454 0.467,0.226 2.223,-1.087 0.974,-0.728 1.868,-1.323 1.987,-1.323 0.12,0 0.546,-0.259 0.948,-0.575 0.996,-0.783 0.57,0.027 -1.232,2.35 -0.704,0.908 -1.28,1.813 -1.28,2.013 0,0.2 -0.25,0.59 -0.556,0.867 -0.457,0.413 -0.529,0.702 -0.404,1.617 0.085,0.616 0.038,1.185 -0.105,1.273 -0.142,0.088 -0.258,0.513 -0.258,0.946 0,0.455 -0.167,0.85 -0.397,0.939 -0.57,0.218 -0.492,0.748 0.29,1.988 0.379,0.599 0.93,2.115 1.226,3.368 1.655,7.005 2.125,7.424 5.392,4.812 1.294,-1.035 2.889,-2.125 3.543,-2.422 2.666,-1.209 3.505,-1.726 3.725,-2.293 0.127,-0.327 0.417,-0.595 0.643,-0.595 0.876,0 3.04,-1.322 3.04,-1.857 0,-0.376 -0.177,-0.524 -0.628,-0.524 -0.94,0 -1.298,-0.57 -0.804,-1.275 0.615,-0.878 1.433,-0.761 1.433,0.203 0,0.78 0,0.78 1.723,0.703 1.969,-0.09 2.133,-0.176 1.737,-0.916 -0.176,-0.329 -0.19,-0.595 -0.036,-0.69 0.279,-0.173 3.161,-0.544 4.967,-0.64 0.322,-0.017 1.026,-0.417 1.563,-0.889 0.9,-0.79 1.135,-0.862 2.972,-0.91 2.48,-0.066 3.225,-0.247 3.68,-0.897 0.476,-0.68 5.268,-0.778 5.523,-0.113 0.084,0.218 0.378,0.397 0.653,0.397 0.482,0 0.481,-0.02 -0.028,-0.53 -0.291,-0.29 -0.53,-0.648 -0.53,-0.793 0,-0.145 -0.282,-0.265 -0.628,-0.265 -0.346,0 -0.778,-0.179 -0.959,-0.397 -0.442,-0.532 -1.1,-0.505 -1.004,0.042 0.09,0.506 -0.556,0.733 -2.77,0.975 -0.875,0.095 -1.56,0.055 -1.653,-0.096 -0.088,-0.143 -0.57,-0.26 -1.07,-0.26 -0.501,0 -0.911,-0.106 -0.911,-0.236 0,-0.46 -0.838,-0.548 -1.581,-0.164 -0.537,0.278 -0.716,0.535 -0.622,0.894 0.265,1.013 -3.084,2.034 -3.415,1.041 -0.078,-0.233 -0.359,-0.198 -1.054,0.132 -1.705,0.81 -2.347,0.505 -1.538,-0.729 0.27,-0.411 0.434,-0.898 0.364,-1.08 -0.201,-0.524 0.239,-0.65 2.598,-0.739 2.197,-0.083 2.205,-0.086 2.232,-0.805 0.038,-1.031 0.416,-1.288 2.007,-1.365 l 2.001,-0.095 c 0.443,-0.021 0.595,-0.19 0.595,-0.657 0,-1.353 4.764,-2.234 5.72,-1.059 0.223,0.273 0.33,0.348 0.238,0.166 -0.098,-0.192 -10e-4,-0.33 0.231,-0.33 0.22,0 0.515,-0.207 0.657,-0.46 0.332,-0.593 1.94,-0.57 3.359,0.05 2.479,1.082 2.798,1.203 3.158,1.203 0.21,0 0.482,-0.387 0.607,-0.86 0.378,-1.435 2.104,-1.244 6.09,0.673 0.626,0.302 1.093,-0.028 1.103,-0.777 0.012,-0.933 2.117,-0.242 5.682,1.867 1.348,0.797 1.426,1.096 0.352,1.348 -1.187,0.279 0.638,0.609 3.363,0.608 3.988,-0.001 5.533,0.092 6.04,0.363 0.29,0.155 1.281,0.44 2.203,0.633 2.52,0.527 3.027,0.977 0.885,0.784 -2.405,-0.217 -5.504,-0.666 -6.686,-0.968 -1.05,-0.269 -1.641,-0.118 -1.355,0.345 0.105,0.17 -0.02,0.215 -0.327,0.119 -0.272,-0.086 -1.359,-0.188 -2.413,-0.227 -1.055,-0.04 -1.918,-0.174 -1.919,-0.3 0,-0.126 -0.323,-0.017 -0.718,0.241 -0.71,0.465 -5.475,0.774 -5.206,0.337 0.06,-0.098 -0.154,-0.263 -0.477,-0.365 -0.362,-0.115 -0.626,-0.07 -0.69,0.12 -0.217,0.653 -2.158,1.379 -3.321,1.242 -1.469,-0.173 -2.06,-0.411 -1.853,-0.747 0.093,-0.15 0.005,-0.217 -0.2,-0.149 -0.202,0.068 -0.367,0.252 -0.367,0.41 0,0.438 -0.27,0.616 -1.097,0.73 l -2.397,0.335 c -0.924,0.131 -1.579,0.132 -1.499,0.003 0.078,-0.126 -0.136,-0.163 -0.475,-0.082 -0.34,0.081 -1.03,0.193 -1.535,0.247 -0.504,0.055 -0.956,0.219 -1.005,0.364 -0.048,0.146 -0.307,0.208 -0.574,0.138 -0.268,-0.07 -0.567,0.002 -0.665,0.16 -0.214,0.347 -1.205,0.387 -1.205,0.05 0,-0.132 -0.525,-0.082 -1.166,0.111 -0.642,0.194 -1.226,0.293 -1.298,0.22 -0.071,-0.071 -0.639,0.13 -1.26,0.446 -0.893,0.456 -1.44,0.55 -2.606,0.452 -1.33,-0.113 -1.559,-0.053 -2.33,0.62 -0.471,0.41 -1.364,0.895 -1.985,1.076 -0.621,0.181 -1.206,0.442 -1.3,0.58 -0.095,0.137 -0.547,0.174 -1.006,0.082 -0.48,-0.096 -0.77,-0.064 -0.684,0.076 0.192,0.31 -0.237,0.574 -1.09,0.667 -0.369,0.04 -0.928,0.344 -1.241,0.673 -0.314,0.33 -0.421,0.516 -0.24,0.415 0.182,-0.101 0.331,-0.058 0.331,0.096 0,0.466 2.283,0.315 3.768,-0.249 0.765,-0.29 1.749,-0.517 2.185,-0.502 0.794,0.027 0.794,0.027 -0.08,0.234 -1.928,0.457 -1.04,0.568 2.99,0.376 10.426,-0.497 17.596,-0.12 17.596,0.927 0,0.353 -0.883,0.817 -1.555,0.817 -0.292,0 -0.593,0.1 -0.668,0.223 -0.076,0.123 0.482,0.131 1.24,0.019 2.668,-0.394 12.367,-0.475 13.8,-0.115 0.736,0.185 1.993,0.409 2.793,0.496 1.498,0.165 4.365,0.92 4.183,1.103 -0.056,0.057 -1.11,-0.095 -2.341,-0.337 -2.553,-0.502 -6.71,-0.596 -7.143,-0.162 -0.208,0.208 0.057,0.327 0.95,0.428 0.894,0.1 1.425,0.34 1.904,0.856 0.66,0.712 0.681,0.715 3.21,0.535 2.345,-0.168 2.594,-0.139 3.18,0.37 0.35,0.304 1.005,0.556 1.455,0.56 0.451,0.002 1.236,0.116 1.746,0.25 7.138,1.887 11.185,3.2 11.94,3.88 0.238,0.212 0.893,0.528 1.456,0.7 2.45,0.754 -1.678,0.509 -5.062,-0.3 -7.773,-1.858 -10,-2.033 -9.506,-0.746 0.144,0.375 -0.026,0.444 -1.115,0.457 -5.03,0.058 -13.399,0.8 -16.474,1.461 -0.608,0.131 -0.845,0.104 -0.729,-0.085 0.321,-0.52 6.72,-1.712 8.915,-1.662 0.66,0.015 1.668,-0.168 2.24,-0.407 0.908,-0.38 1.285,-0.394 2.947,-0.11 1.049,0.18 2.243,0.241 2.655,0.137 1.385,-0.351 -0.532,-0.894 -2.596,-0.735 -1.71,0.131 -1.77,0.115 -2.243,-0.629 -0.874,-1.372 -1.294,-1.48 -1.513,-0.387 -0.283,1.416 -1.94,1.37 -2.08,-0.058 -0.067,-0.692 -0.218,-0.856 -0.917,-0.998 -0.656,-0.133 -0.806,-0.089 -0.694,0.202 0.078,0.205 -0.127,0.66 -0.456,1.01 -0.853,0.907 -2.26,0.264 -2.023,-0.925 0.144,-0.72 0.108,-0.75 -1.03,-0.84 -0.713,-0.057 -1.178,0.017 -1.178,0.187 0,0.433 -1.692,1.972 -2.167,1.972 -0.685,0 -1.08,-1.877 -0.475,-2.252 0.667,-0.411 -0.217,-0.658 -2.335,-0.65 -1.691,0.006 -2.177,0.08 -1.836,0.277 1.076,0.627 -0.377,2.548 -1.81,2.392 -1.15,-0.125 -0.734,-2.251 0.49,-2.494 0.325,-0.065 -0.314,-0.118 -1.422,-0.119 -2.014,0 -2.014,0 -1.626,0.778 0.4,0.8 -0.012,1.506 -0.891,1.53 -0.164,0.006 -0.447,0.188 -0.628,0.406 -0.629,0.757 -2.029,0.507 -2.209,-0.394 -0.207,-1.038 0.003,-1.527 0.851,-1.973 0.696,-0.366 0.696,-0.366 -0.073,-0.56 -2.352,-0.594 -11.05,0.278 -10.298,1.032 0.096,0.096 -0.024,0.175 -0.266,0.175 -0.243,0 -0.441,-0.132 -0.441,-0.293 0,-0.286 -0.272,-0.268 -2.646,0.177 -3,0.562 -7.854,2.193 -7.21,2.423 0.468,0.167 0.411,0.523 -0.176,1.11 -0.278,0.279 -0.927,1.142 -1.441,1.918 a 45.464,45.464 0 0 1 -1.499,2.138 c -0.564,0.726 -0.564,0.726 0.123,0.988 0.378,0.143 0.802,0.56 0.94,0.927 0.287,0.752 0.735,0.815 2.903,0.404 0.762,-0.145 2.713,-0.331 4.336,-0.414 1.623,-0.084 3.1,-0.2 3.283,-0.26 0.517,-0.167 1.707,0.373 1.59,0.723 -0.057,0.172 -1.644,0.692 -3.527,1.155 -4.72,1.163 -5.936,1.815 -5.936,3.183 0,0.413 -0.234,0.668 -0.794,0.863 -0.437,0.152 -0.794,0.397 -0.794,0.544 0,1.063 -2.191,1.96 -2.807,1.149 -0.322,-0.425 -0.352,-0.426 -0.36,-0.018 -0.004,0.245 -0.246,0.521 -0.537,0.613 -0.376,0.12 -0.53,0.4 -0.53,0.973 0,0.624 -0.093,0.768 -0.418,0.643 a 2.609,2.609 0 0 0 -0.765,-0.16 c -0.19,0 -0.421,-0.298 -0.512,-0.662 -0.105,-0.418 -0.353,-0.661 -0.675,-0.661 -0.28,0 -0.572,-0.104 -0.65,-0.23 -0.08,-0.127 -0.494,-0.301 -0.923,-0.387 -0.546,-0.11 -0.805,-0.334 -0.865,-0.751 -0.065,-0.45 -0.372,-0.678 -1.249,-0.931 -1.478,-0.427 -1.536,-0.497 -0.954,-1.14 0.846,-0.935 0.106,-2.59 -1.157,-2.588 -0.528,0 -1.733,-0.2 -2.68,-0.446 -0.945,-0.246 -1.99,-0.5 -2.32,-0.566 -0.508,-0.1 -0.558,-0.2 -0.321,-0.64 0.38,-0.71 -0.176,-0.703 -0.937,0.012 -0.479,0.45 -1.027,0.555 -3.456,0.658 -1.588,0.068 -3.423,0.208 -4.078,0.312 a 25.91,25.91 0 0 1 -1.455,0.201 c -0.145,0.007 -0.299,0.37 -0.34,0.807 -0.042,0.437 -0.296,1.984 -0.564,3.44 -1.232,6.677 -1.303,7.608 -0.546,7.14 0.647,-0.4 1.904,0.162 1.693,0.757 -0.184,0.519 -0.24,1.21 -0.341,4.223 -0.022,0.663 -0.134,0.946 -0.327,0.827 -0.196,-0.122 -0.235,0 -0.117,0.372 0.096,0.304 0.193,1.569 0.216,2.81 0.034,1.915 0.107,2.26 0.48,2.26 0.535,0 0.772,1.009 0.772,3.276 0,1.205 0.164,1.93 0.635,2.815 0.35,0.657 0.897,2.084 1.216,3.173 1.309,4.462 2.917,7.206 3.404,5.809 0.866,-2.485 1.672,-1.517 1.768,2.124 0.124,4.722 1.154,7.03 2.065,4.63 0.216,-0.57 0.457,0.134 0.6,1.749 0.14,1.598 0.083,1.83 -1.041,4.215 -1.268,2.69 -1.3,3.92 -0.145,5.769 0.857,1.371 1.927,1.345 -47.16,1.124 -10.13,-0.045 -18.784,-0.003 -19.23,0.096 -0.637,0.14 -0.94,0.053 -1.39,-0.397 z M 98.37,117.662 c 0.564,-1.469 -0.65,-9.116 -1.45,-9.134 -0.093,-0.003 -0.68,0.859 -1.306,1.914 -0.625,1.055 -1.514,2.394 -1.973,2.976 -1.995,2.524 -1.84,3.605 0.555,3.894 0.863,0.104 1.926,0.302 2.363,0.44 1.163,0.368 1.644,0.344 1.811,-0.09 z m 17.106,71.224 c -3.329,-0.251 -3.5,-0.29 -2.517,-0.57 1.24,-0.353 0.645,-1.049 -1.178,-1.377 -0.514,-0.092 -1.097,-0.296 -1.295,-0.454 -0.266,-0.212 -0.437,-0.18 -0.661,0.122 -1.022,1.382 -3.007,0.54 -2.14,-0.908 0.412,-0.69 0.505,-1.368 0.51,-3.729 0.005,-2.886 0.005,-2.886 0.85,-3.307 0.466,-0.232 0.883,-0.65 0.927,-0.93 0.112,-0.71 0.741,-0.86 0.741,-0.175 0,0.313 0.172,0.551 0.397,0.551 0.219,0 0.397,0.182 0.397,0.405 0,0.564 0.717,0.782 1.214,0.37 0.29,-0.242 0.367,-0.595 0.257,-1.184 -0.218,-1.159 0.425,-1.725 1.18,-1.042 0.288,0.261 0.524,0.661 0.524,0.889 0,0.276 0.301,0.105 0.9,-0.511 0.857,-0.883 1.948,-1.126 3.654,-0.814 0.104,0.02 0.314,0.5 0.466,1.068 0.353,1.31 1.061,1.214 2.05,-0.278 0.394,-0.597 0.856,-0.997 1.103,-0.957 0.316,0.052 0.429,-0.15 0.435,-0.777 0.005,-0.466 0.105,-0.942 0.222,-1.059 0.302,-0.299 1.486,1.259 1.488,1.956 0.002,1.002 0.524,0.955 0.958,-0.085 0.51,-1.22 0.686,-0.988 1.299,1.705 0.287,1.263 0.558,1.902 0.808,1.902 a 0.38,0.38 0 0 1 0.376,0.38 c 0,0.604 0.414,0.706 1.202,0.297 1.207,-0.626 1.722,-2.26 0.716,-2.27 -0.275,-0.001 -0.35,-0.082 -0.184,-0.198 0.154,-0.106 0.436,-0.58 0.628,-1.054 0.597,-1.477 1.05,-0.945 1.02,1.197 -0.008,0.623 -0.118,1.195 -0.244,1.273 -0.125,0.078 -0.228,0.413 -0.228,0.746 0,0.333 -0.226,0.809 -0.501,1.059 -0.48,0.434 -0.924,1.75 -0.587,1.739 0.385,-0.014 1.33,-0.989 1.73,-1.783 0.238,-0.475 0.672,-1.01 0.965,-1.191 0.292,-0.18 0.833,-0.84 1.201,-1.465 5.657,-9.616 4.047,-26.872 -3.445,-36.92 -1.579,-2.117 -2.2,-3.614 -1.502,-3.614 0.6,0 7.725,1.694 9.15,2.176 11.908,4.023 13.816,11.434 6.184,24.017 -2.05,3.38 -2.665,4.659 -3.501,7.276 -1.179,3.688 -2.608,7.041 -3.527,8.272 -0.354,0.476 -0.881,1.4 -1.17,2.054 -0.289,0.654 -1.235,2.249 -2.1,3.543 -0.866,1.294 -1.574,2.464 -1.574,2.601 0,1.142 -2.84,1.484 -8.863,1.069 -0.437,-0.03 -1.687,0.014 -2.778,0.1 -1.092,0.085 -3.592,0.033 -5.557,-0.115 z m 63.765,-69.019 c -1.528,-0.433 -4.951,-1.394 -7.607,-2.135 -2.656,-0.741 -4.828,-1.436 -4.828,-1.545 0,-1.203 8.298,0.39 13.108,2.517 0.825,0.365 1.607,0.598 1.737,0.518 0.13,-0.08 0.236,-0.007 0.236,0.163 0,0.17 0.184,0.237 0.41,0.15 0.226,-0.086 0.344,-0.048 0.261,0.085 -0.082,0.134 0.09,0.32 0.384,0.412 2.804,0.89 -0.5,0.743 -3.7,-0.165 z m -24.342,-5.274 c 0,-0.155 -0.208,-0.247 -0.463,-0.205 -0.255,0.042 -0.607,-0.015 -0.784,-0.125 -0.176,-0.11 -1.802,-0.306 -3.614,-0.435 -1.812,-0.128 -3.535,-0.362 -3.83,-0.52 -0.295,-0.158 -0.893,-0.286 -1.33,-0.286 -1.508,0 -1.09,-0.482 0.495,-0.572 0.874,-0.05 1.59,0.002 1.59,0.115 -0.001,0.113 0.921,0.128 2.05,0.034 1.589,-0.132 2.28,-0.074 3.074,0.259 0.757,0.316 1.899,0.43 4.366,0.437 2.557,0.006 3.465,0.102 3.869,0.407 0.81,0.612 0.151,0.837 -2.266,0.773 -1.154,-0.03 -2.099,0.047 -2.099,0.172 0,0.125 -0.238,0.227 -0.529,0.227 -0.291,0 -0.529,-0.127 -0.529,-0.281 z"
       id="path1881" />
    <path
       fill="#b9562d"
       d="m 115.48,188.89 c -3.333,-0.257 -3.501,-0.295 -2.517,-0.576 1.24,-0.353 0.645,-1.049 -1.178,-1.377 -0.514,-0.092 -1.097,-0.296 -1.295,-0.454 -0.266,-0.212 -0.437,-0.18 -0.661,0.122 -1.022,1.382 -3.007,0.54 -2.14,-0.908 0.412,-0.69 0.505,-1.368 0.51,-3.729 0.005,-2.886 0.005,-2.886 0.85,-3.307 0.466,-0.232 0.883,-0.65 0.927,-0.93 0.112,-0.71 0.741,-0.86 0.741,-0.175 0,0.313 0.172,0.551 0.397,0.551 0.219,0 0.397,0.182 0.397,0.405 0,0.564 0.717,0.782 1.214,0.37 0.29,-0.242 0.367,-0.595 0.257,-1.184 -0.218,-1.159 0.425,-1.725 1.18,-1.042 0.288,0.261 0.524,0.661 0.524,0.889 0,0.276 0.301,0.105 0.9,-0.511 0.857,-0.883 1.948,-1.126 3.654,-0.814 0.104,0.02 0.314,0.5 0.466,1.068 0.353,1.31 1.061,1.214 2.05,-0.278 0.394,-0.597 0.856,-0.997 1.103,-0.957 0.316,0.052 0.429,-0.15 0.435,-0.777 0.005,-0.466 0.105,-0.942 0.222,-1.059 0.302,-0.299 1.486,1.259 1.488,1.956 0.002,1.002 0.524,0.955 0.958,-0.085 0.51,-1.22 0.686,-0.988 1.299,1.705 0.287,1.263 0.558,1.902 0.808,1.902 a 0.38,0.38 0 0 1 0.376,0.38 c 0,0.604 0.414,0.706 1.202,0.297 1.207,-0.626 1.722,-2.26 0.716,-2.27 -0.275,-0.001 -0.35,-0.082 -0.184,-0.197 0.154,-0.107 0.436,-0.582 0.628,-1.055 0.597,-1.477 1.05,-0.945 1.02,1.198 -0.008,0.622 -0.118,1.194 -0.244,1.272 -0.125,0.078 -0.228,0.413 -0.228,0.746 0,0.333 -0.226,0.809 -0.501,1.059 -0.48,0.434 -0.924,1.751 -0.587,1.739 0.385,-0.014 1.33,-0.989 1.73,-1.783 0.238,-0.475 0.672,-1.01 0.965,-1.19 0.695,-0.43 1.704,-2.166 2.543,-4.377 4.084,-10.759 2.108,-24.76 -4.803,-34.03 -2.5,-3.353 -2.392,-3.459 2.438,-2.415 10.185,2.202 15.69,6.601 15.741,12.58 0.027,3.218 -1.149,6.405 -4.322,11.71 -2.29,3.829 -2.908,5.113 -3.965,8.252 -1.41,4.187 -2.359,6.378 -3.464,8.005 -0.416,0.612 -0.995,1.67 -1.287,2.35 -0.292,0.682 -0.87,1.67 -1.284,2.196 -0.414,0.526 -1.131,1.632 -1.595,2.457 -1.26,2.246 -1.054,2.173 -6.33,2.216 -2.57,0.02 -5.327,0.103 -6.127,0.184 -0.8,0.081 -3.063,0.023 -5.027,-0.128 z m -43.556,-0.187 c -0.066,-0.066 -8.956,-0.126 -19.756,-0.133 -22.216,-0.013 -20.983,0.337 -18.567,-5.279 3.288,-7.643 10.251,-14.933 19.911,-20.847 11.519,-7.051 13.94,-8.77 18.108,-12.86 3.06,-3.001 4.442,-6.553 4.963,-12.753 1.138,-13.515 5.908,-23.367 13.76,-28.422 1.798,-1.157 5.928,-3.07 6.62,-3.066 0.22,10e-4 0.84,-0.295 1.375,-0.66 1.735,-1.178 2.143,-0.632 0.59,0.79 -1.014,0.93 -0.717,1.867 1.47,4.635 1.19,1.506 2.566,4.26 2.909,5.82 1.588,7.233 2.474,8.163 5.313,5.578 2.202,-2.005 3.61,-2.96 5.073,-3.44 0.546,-0.18 0.992,-0.433 0.992,-0.563 0,-0.131 0.342,-0.415 0.76,-0.63 0.418,-0.215 0.824,-0.637 0.902,-0.934 0.077,-0.297 0.334,-0.54 0.571,-0.54 0.998,0 3.059,-1.317 3.059,-1.954 0,-0.663 1.341,-1.097 2.513,-0.813 0.837,0.203 1.304,-0.231 0.953,-0.887 -0.18,-0.335 -0.196,-0.607 -0.042,-0.701 0.279,-0.173 3.161,-0.544 4.967,-0.64 0.323,-0.018 1.026,-0.417 1.563,-0.89 0.9,-0.789 1.135,-0.861 2.972,-0.91 2.48,-0.065 3.225,-0.247 3.68,-0.896 0.422,-0.603 5.156,-0.78 5.511,-0.206 0.505,0.816 -2.256,1.707 -4.082,1.318 -0.944,-0.202 -1.326,-0.182 -1.63,0.085 -1.132,0.99 -2.743,1.525 -4.215,1.4 -1.33,-0.113 -1.558,-0.052 -2.33,0.621 -0.886,0.772 -3.072,1.563 -4.32,1.563 -0.392,0 -0.861,0.179 -1.042,0.397 -0.182,0.218 -0.493,0.397 -0.693,0.397 -0.2,0 -0.811,0.4 -1.357,0.89 -0.546,0.489 -1.588,1.17 -2.316,1.513 -1.54,0.727 0.16,1.094 2.424,0.524 1.627,-0.41 1.915,-0.369 1.754,0.248 -0.078,0.296 -0.008,0.53 0.157,0.53 0.287,0 0.398,-0.338 0.32,-0.973 -0.063,-0.504 7.382,-1.499 7.834,-1.047 0.292,0.292 -0.077,0.444 -1.482,0.61 -0.823,0.097 -1.33,0.279 -1.273,0.455 0.154,0.47 3.277,0.825 3.973,0.452 0.323,-0.172 1.062,-0.303 1.642,-0.29 0.58,0.012 2.573,-0.038 4.429,-0.112 4.784,-0.19 4.56,0.176 -0.86,1.413 -4.234,0.965 -3.892,1.565 0.438,0.767 1.296,-0.239 1.763,-0.239 2.002,0 0.415,0.415 0.996,0.394 1.507,-0.055 0.627,-0.55 6.914,-1.557 10.075,-1.613 2.87,-0.052 4.092,0.16 2.27,0.392 -2.823,0.36 -0.146,1.339 3.419,1.25 2.071,-0.051 2.506,0.018 3.338,0.536 0.8,0.497 1.333,0.595 3.236,0.595 1.28,0 2.716,0.16 3.276,0.366 0.549,0.2 1.712,0.488 2.585,0.637 3.616,0.619 11.734,3.149 12.603,3.927 0.238,0.213 0.893,0.529 1.456,0.702 2.449,0.753 -1.67,0.509 -5.062,-0.3 -3.845,-0.917 -6.342,-1.424 -8.07,-1.638 -1.092,-0.135 -2.52,-0.356 -3.175,-0.491 -6.43,-1.326 -9.153,-1.771 -13.23,-2.162 -1.527,-0.146 -3.124,-0.381 -3.548,-0.522 -1.764,-0.587 -24.02,-0.471 -25.173,0.13 -0.428,0.224 -0.991,0.407 -1.25,0.408 -0.558,0.002 -6.702,1.78 -7.35,2.127 -0.245,0.131 -0.969,0.356 -1.607,0.499 -1.536,0.344 -6.572,2.753 -6.003,2.871 0.244,0.05 1.018,-0.138 1.72,-0.42 5.616,-2.254 8.554,-2.767 6.504,-1.136 -0.295,0.234 -0.684,0.724 -0.865,1.088 -0.18,0.364 -0.79,1.268 -1.354,2.009 -1.16,1.526 -1.215,1.695 -0.548,1.695 0.603,0 1.11,0.5 1.11,1.096 0,0.745 0.384,0.797 2.836,0.386 6.893,-1.155 11.602,-0.644 5.764,0.626 -2.286,0.497 -4.067,0.991 -7.673,2.126 -5.515,1.735 -8.676,1.637 -10.327,-0.322 -0.592,-0.701 -0.942,-0.877 -1.818,-0.91 -0.596,-0.021 -1.858,-0.239 -2.804,-0.483 a 62.856,62.856 0 0 0 -2.321,-0.562 c -0.508,-0.1 -0.558,-0.2 -0.321,-0.64 0.38,-0.71 -0.176,-0.702 -0.937,0.013 -0.487,0.457 -1.034,0.556 -3.7,0.67 -1.722,0.074 -3.57,0.233 -4.108,0.354 -0.559,0.126 -1.164,0.116 -1.41,-0.022 -0.356,-0.199 -0.432,-0.106 -0.432,0.525 0,0.422 -0.285,2.065 -0.633,3.651 -1.018,4.64 -1.092,5.665 -0.868,11.992 0.152,4.317 0.816,6.746 1.964,7.187 0.327,0.126 0.6,0.322 0.606,0.434 0.15,2.95 0.407,4.331 1.046,5.623 0.397,0.804 0.931,2.235 1.186,3.181 1.497,5.55 3.281,8.076 4.082,5.78 0.538,-1.544 1.225,0.069 0.863,2.025 -0.457,2.469 0.784,6.352 1.937,6.063 1.199,-0.3 1.125,0.85 -0.249,3.889 -1.33,2.942 -1.32,2.701 -0.268,6.22 0.239,0.8 -27.033,1.429 -27.821,0.642 z m 24.29,-61.37 c 3.303,-2.095 2.39,-6.85 -1.481,-7.717 -5.88,-1.316 -6.947,6.809 -1.082,8.237 1.239,0.301 1.28,0.293 2.563,-0.52 z m -3.753,-2.672 c -1.005,-1.005 -0.202,-3.04 0.982,-2.49 0.26,0.12 0.83,0.224 1.267,0.23 0.693,0.01 0.804,0.116 0.874,0.84 0.153,1.569 -1.997,2.546 -3.123,1.42 z m 5.925,-7.21 c 0.062,-0.327 0.117,-0.893 0.121,-1.257 0.005,-0.364 0.023,-1.525 0.042,-2.582 0.024,-1.382 -0.126,-2.346 -0.534,-3.437 -0.346,-0.924 -0.509,-1.81 -0.417,-2.268 0.263,-1.319 -0.372,-0.67 -2.196,2.24 -0.963,1.537 -2.124,3.287 -2.58,3.89 -1.32,1.74 -0.778,3.006 1.4,3.272 0.85,0.104 1.903,0.302 2.34,0.44 1.296,0.41 1.7,0.344 1.824,-0.298 z m 53.96,8.336 c 0.322,-0.52 6.72,-1.712 8.915,-1.662 0.66,0.015 1.664,-0.166 2.231,-0.403 0.903,-0.378 1.286,-0.39 3.073,-0.1 1.67,0.271 2.195,0.268 2.887,-0.018 0.713,-0.296 0.882,-0.292 1.081,0.023 0.416,0.656 0.27,0.77 -1.012,0.784 -5.016,0.059 -13.38,0.802 -16.445,1.462 -0.609,0.13 -0.845,0.103 -0.729,-0.086 z m 26.898,-5.923 c -1.528,-0.433 -4.951,-1.394 -7.607,-2.135 -2.656,-0.74 -4.829,-1.436 -4.829,-1.545 0,-1.316 7.73,0.268 13.824,2.832 4.325,1.82 3.6,2.263 -1.389,0.848 z m -25.93,-5.692 a 23.117,23.117 0 0 0 -3.439,-0.353 c -0.946,-0.01 -2.196,-0.147 -2.778,-0.304 a 19.53,19.53 0 0 0 -2.052,-0.419 c -2.222,-0.297 -1.036,-0.558 2.514,-0.552 2.593,0.005 4.05,0.122 4.663,0.373 0.601,0.247 2.001,0.367 4.284,0.367 3.22,0 4.148,0.207 3.52,0.785 -0.411,0.378 -4.939,0.447 -6.711,0.103 z m -9.948,-6.293 c -1.78,-0.775 -1.36,-1.984 0.524,-1.51 1.649,0.415 2.803,0.373 3.736,-0.136 0.566,-0.308 1.569,-0.447 3.49,-0.481 1.743,-0.032 2.84,-0.17 3.105,-0.39 0.276,-0.229 0.737,-0.279 1.406,-0.153 2.253,0.425 3.22,0.428 4.018,0.015 0.663,-0.343 1.106,-0.371 2.465,-0.159 0.91,0.143 2.43,0.253 3.376,0.246 3.645,-0.028 5.4,0.074 5.907,0.346 0.29,0.156 1.282,0.44 2.203,0.633 2.52,0.527 3.028,0.977 0.885,0.784 -2.431,-0.22 -5.51,-0.667 -6.713,-0.976 -0.71,-0.183 -1.112,-0.176 -1.31,0.022 -0.323,0.323 -2.175,0.35 -3.75,0.056 -0.781,-0.146 -1.302,-0.079 -1.985,0.256 -0.93,0.455 -3.852,0.37 -5.49,-0.16 -0.373,-0.122 -0.595,-0.085 -0.595,0.096 0,1.041 -2.604,1.547 -4.21,0.818 -1.16,-0.526 -1.17,-0.526 -1.72,-0.01 -1.032,0.97 -3.871,1.343 -5.342,0.703 z"
       id="path1883" />
    <path
       fill="#1f5898"
       d="m 71.921,188.7 c -0.066,-0.066 -8.956,-0.126 -19.756,-0.132 -22.216,-0.014 -20.983,0.337 -18.567,-5.28 3.288,-7.643 10.251,-14.932 19.911,-20.846 11.519,-7.052 13.94,-8.771 18.108,-12.86 3.06,-3.002 4.442,-6.554 4.963,-12.753 1.138,-13.515 5.908,-23.367 13.76,-28.422 1.798,-1.157 5.928,-3.07 6.62,-3.066 0.22,0 0.84,-0.296 1.375,-0.66 1.735,-1.178 2.143,-0.632 0.59,0.79 -1.014,0.93 -0.717,1.866 1.47,4.634 1.19,1.506 2.566,4.26 2.909,5.821 1.588,7.233 2.474,8.163 5.313,5.578 2.06,-1.877 3.547,-2.913 4.875,-3.398 0.436,-0.16 1.627,-0.609 2.645,-0.998 1.391,-0.53 2.413,-0.722 4.101,-0.77 1.237,-0.033 2.688,-0.155 3.225,-0.269 0.907,-0.192 0.966,-0.167 0.83,0.354 -0.086,0.325 -0.023,0.561 0.148,0.561 0.287,0 0.398,-0.337 0.32,-0.972 -0.063,-0.504 7.382,-1.499 7.834,-1.046 0.292,0.291 -0.077,0.443 -1.482,0.61 -0.823,0.097 -1.33,0.278 -1.273,0.454 0.154,0.47 3.277,0.825 3.973,0.453 0.323,-0.173 1.062,-0.304 1.642,-0.291 0.58,0.013 2.573,-0.038 4.429,-0.112 3.395,-0.135 4.307,0.103 2.38,0.621 -5.41,1.455 -9.173,2.287 -12.104,2.674 -1.31,0.173 -2.757,0.48 -3.215,0.682 -0.459,0.202 -1.028,0.367 -1.266,0.367 -0.526,0 -6.684,1.79 -7.31,2.125 -0.245,0.132 -0.968,0.356 -1.607,0.5 -1.535,0.343 -6.572,2.752 -6.002,2.87 0.244,0.051 1.018,-0.138 1.72,-0.42 6.607,-2.652 7.485,-2.71 5.775,-0.381 l -1.72,2.343 c -0.967,1.319 -0.98,1.525 -0.128,1.913 0.366,0.167 0.78,0.603 0.92,0.969 0.296,0.782 0.083,0.761 2.91,0.28 6.095,-1.035 10.542,-0.481 5.475,0.682 -1.664,0.382 -3.844,0.951 -4.845,1.265 l -2.614,0.819 c -3.3,1.039 -7.656,1.553 -8.682,1.025 -1.543,-0.793 -3.734,-3.473 -3.78,-4.623 -0.062,-1.564 -0.246,-1.772 -1.152,-1.303 -1.184,0.612 -1.879,-0.127 -2.907,-3.093 -0.468,-1.352 -1.128,-2.935 -1.466,-3.52 -0.996,-1.72 -1.454,-3.773 -1.587,-7.113 -0.091,-2.3 -0.273,-3.535 -0.68,-4.623 -0.337,-0.9 -0.497,-1.78 -0.406,-2.236 0.264,-1.317 -0.37,-0.67 -2.196,2.238 -0.962,1.534 -2.082,3.255 -2.488,3.824 -4.231,5.932 -4.95,7.312 -4.95,9.498 0,1.994 0.064,2.272 1.305,5.656 0.976,2.662 0.982,2.883 0.179,6.545 -1.018,4.64 -1.092,5.665 -0.869,11.992 0.153,4.317 0.816,6.745 1.964,7.187 0.328,0.125 0.6,0.32 0.606,0.434 0.15,2.949 0.407,4.33 1.046,5.623 0.398,0.803 0.932,2.235 1.187,3.18 1.496,5.55 3.28,8.077 4.081,5.78 0.538,-1.543 1.225,0.069 0.863,2.026 -0.457,2.468 0.784,6.352 1.938,6.062 1.198,-0.3 1.125,0.85 -0.25,3.889 -1.33,2.943 -1.32,2.702 -0.268,6.221 0.24,0.8 -27.033,1.428 -27.82,0.641 z m 53.878,0.025 c -1.94,-0.192 -1.864,-0.405 0.79,-2.228 7.057,-4.845 11.14,-12.19 11.211,-20.167 0.09,-9.976 -2.567,-19.61 -6.817,-24.723 -2.581,-3.104 -2.372,-3.479 1.5,-2.684 10.613,2.178 16.342,6.624 16.394,12.723 0.028,3.218 -1.149,6.405 -4.322,11.709 -2.29,3.83 -2.907,5.113 -3.965,8.253 -1.41,4.186 -2.358,6.378 -3.464,8.005 -0.416,0.611 -0.995,1.67 -1.287,2.35 -0.292,0.682 -0.87,1.67 -1.283,2.196 -0.413,0.526 -1.132,1.632 -1.595,2.457 -1.247,2.22 -2.446,2.574 -7.163,2.109 z M 92.458,124.659 c -1.005,-1.006 -0.202,-3.041 0.982,-2.49 0.26,0.12 0.83,0.224 1.267,0.23 0.693,0.009 0.804,0.116 0.874,0.84 0.153,1.568 -1.997,2.546 -3.123,1.42 z m 50.006,-5.808 c 0,-1.218 12.968,-3.194 13.656,-2.081 0.073,0.119 -0.286,0.216 -0.799,0.216 -0.637,0 -1.015,0.155 -1.195,0.49 -0.382,0.715 -2.566,0.91 -4.687,0.418 -0.939,-0.218 -1.835,-0.316 -1.993,-0.219 -0.522,0.323 -4.982,1.376 -4.982,1.176 z"
       id="path1885" />
    <path
       fill="#113650"
       d="m 77.067,188.72 c -6.496,-0.157 -6.827,-0.19 -7.596,-0.76 -0.977,-0.722 -1.224,-0.738 -1.67,-0.104 -0.328,0.464 -0.991,0.493 -12.253,0.54 -6.548,0.026 -14.407,0.06 -17.463,0.074 -5.556,0.027 -5.556,0.027 -5.638,-0.924 -0.177,-2.075 2.747,-7.989 5.557,-11.235 a 84.972,84.972 0 0 0 2.582,-3.201 c 2.318,-3.028 6.183,-6.235 11.711,-9.719 1.643,-1.035 5.249,-3.283 8.014,-4.995 12.158,-7.53 16.272,-12.925 16.271,-21.342 0,-0.778 0.188,-2.426 0.417,-3.663 0.229,-1.237 0.595,-3.201 0.813,-4.365 1.837,-9.798 7.391,-18.17 14.25,-21.475 1.851,-0.893 1.851,-0.893 1.933,0.038 0.101,1.145 0.436,1.17 1.863,0.136 0.604,-0.437 1.098,-0.677 1.098,-0.532 0,0.406 -3.346,5.948 -3.837,6.355 -0.24,0.199 -0.68,0.846 -0.98,1.437 -0.3,0.592 -0.888,1.512 -1.307,2.044 -2.027,2.576 -2.872,4.471 -2.872,6.438 0,1.982 0.096,2.406 1.196,5.294 0.892,2.344 0.875,3.723 -0.11,8.515 -1.023,4.976 -1.069,14.608 -0.076,15.95 0.318,0.43 0.578,0.899 0.578,1.042 0,0.143 0.327,0.418 0.727,0.609 0.691,0.33 0.734,0.46 0.86,2.594 0.11,1.876 0.25,2.42 0.85,3.305 0.394,0.582 0.946,2.01 1.226,3.175 0.28,1.164 0.76,2.857 1.069,3.762 0.307,0.905 0.56,2.2 0.56,2.877 0,1.232 0,1.232 0.826,1.067 0.455,-0.091 0.937,-0.165 1.071,-0.165 0.135,0 0.465,-0.492 0.734,-1.092 0.675,-1.508 1.274,-0.64 0.793,1.147 -0.717,2.663 0.528,6.985 1.924,6.679 1.071,-0.235 0.985,0.705 -0.337,3.68 -1.158,2.61 -1.253,4.237 -0.332,5.687 0.788,1.24 -5.265,1.543 -22.452,1.128 z m -0.484,-14.092 c 0,-0.156 0.194,-0.21 0.431,-0.118 0.554,0.213 2.01,-0.89 3.026,-2.293 1.534,-2.116 0.561,-2.116 -1.34,10e-4 -1.326,1.476 -1.358,1.229 -0.1,-0.774 2.852,-4.542 3.669,-7.665 1.286,-4.914 -0.536,0.618 -0.887,0.886 -0.779,0.595 1.051,-2.839 1.382,-3.615 1.655,-3.889 0.668,-0.667 0.392,-1.8 -0.439,-1.8 -0.677,0 -0.833,0.176 -1.47,1.654 -1.337,3.105 -1.655,3.633 -2.558,4.249 -0.945,0.645 -1.092,1.469 -0.47,2.632 0.247,0.46 0.346,0.429 1.437,-0.466 0.65,-0.532 1.17,-0.805 1.167,-0.612 -0.01,0.567 -0.978,2.54 -1.834,3.735 -1.063,1.485 -1.41,3.032 -0.58,2.588 0.312,-0.168 0.568,-0.432 0.568,-0.588 z m -12.561,-1.297 c 0.093,-0.152 0.04,-0.433 -0.118,-0.624 -0.223,-0.268 0.174,-0.814 1.73,-2.38 1.111,-1.118 1.95,-2.101 1.866,-2.186 -0.302,-0.302 -1.51,0.196 -2.358,0.972 -0.475,0.435 -1.488,1.342 -2.252,2.017 -1.689,1.491 -1.822,2.153 -0.397,1.968 0.182,-0.024 0.33,0.081 0.33,0.233 0,0.36 0.977,0.36 1.199,0 z m -9.797,-2.14 c 2.647,-1.469 4.041,-2.494 3.766,-2.77 -0.565,-0.565 -7.603,3.537 -7.603,4.432 0,0.321 1.202,-0.2 3.837,-1.662 z m 14.229,-6.908 c 2.099,-2.31 4.25,-4.434 4.492,-4.434 0.125,0 0.158,-0.113 0.073,-0.25 -0.2,-0.326 -2.42,1.17 -2.96,1.996 -0.23,0.35 -0.584,0.635 -0.789,0.635 -0.204,0 -1.113,0.58 -2.02,1.288 -0.906,0.708 -2.005,1.473 -2.442,1.7 -0.436,0.228 -1.746,1.191 -2.91,2.14 -1.164,0.95 -2.414,1.965 -2.778,2.255 -0.364,0.29 1.303,-0.476 3.704,-1.705 3.629,-1.856 4.58,-2.468 5.63,-3.625 z m 3.687,0.97 c 0.576,-0.52 1.204,-0.885 1.395,-0.812 0.191,0.074 0.836,-0.284 1.433,-0.795 1.124,-0.962 1.39,-0.912 0.664,0.125 -0.543,0.775 -0.312,1.497 0.363,1.135 0.728,-0.39 1.967,-3.013 1.779,-3.765 -0.087,-0.347 0.025,-1.15 0.249,-1.783 0.537,-1.523 -0.193,-2.44 -0.896,-1.127 -0.147,0.274 -0.547,0.57 -0.89,0.655 -0.343,0.086 -0.76,0.457 -0.928,0.824 -0.179,0.394 -0.524,0.668 -0.839,0.668 -0.294,0 -0.534,0.103 -0.534,0.23 0,0.288 -2.256,3.682 -2.935,4.417 -1.257,1.36 -0.32,1.547 1.139,0.228 z m 52.211,23.105 c 0.07,-0.182 0.8,-0.807 1.62,-1.389 9.78,-6.932 13.107,-15.039 11.402,-27.78 -0.858,-6.409 -1.058,-7.407 -1.807,-8.997 a 646.592,646.592 0 0 1 -1.964,-4.229 c -0.668,-1.453 -1.674,-3.186 -2.236,-3.852 -1.167,-1.385 -2.13,-2.89 -2.131,-3.334 -0.002,-0.592 8.459,1.485 10.578,2.597 0.507,0.266 1.177,0.484 1.489,0.484 0.312,0 0.715,0.178 0.896,0.397 0.28,0.336 0.218,0.397 -0.402,0.397 -0.401,0 -0.863,-0.182 -1.025,-0.403 -0.162,-0.221 -0.74,-0.476 -1.286,-0.564 -1.361,-0.221 -1.35,0.584 0.028,2.097 1.387,1.522 1.59,2.786 0.599,3.735 -0.85,0.815 -1.375,0.87 -1.974,0.207 -0.805,-0.889 -0.572,-1.633 0.51,-1.633 0.641,0 0.913,-0.107 0.838,-0.33 -0.138,-0.414 -0.881,-0.571 -1.47,-0.31 a 4.87,4.87 0 0 1 -0.58,0.225 0.925,0.925 0 0 0 -0.265,1.738 c 0.7,0.374 0.686,1.519 -0.026,2.277 -0.655,0.697 -0.526,1.785 0.342,2.888 0.429,0.545 0.512,0.928 0.392,1.802 -0.135,0.987 0.116,2.941 0.417,3.242 0.062,0.062 0.638,-0.16 1.28,-0.495 1.813,-0.946 3.087,-1.267 3.258,-0.82 0.202,0.526 0.946,0.453 0.983,-0.096 0.055,-0.82 -0.07,-1.222 -0.585,-1.877 -1.005,-1.278 -0.68,-3.056 0.376,-2.062 1.574,1.482 2.422,3.336 1.743,3.812 -0.472,0.33 -0.532,0.561 -0.39,1.507 0.205,1.37 -0.299,1.984 -1.25,1.526 -2.037,-0.981 -3.312,-0.027 -2.571,1.922 0.183,0.482 0.173,0.866 -0.032,1.25 -0.247,0.462 -0.198,0.626 0.3,1.003 0.398,0.3 0.497,0.512 0.297,0.635 -0.36,0.223 -0.408,2.007 -0.054,2.007 0.567,0 2.118,-2.847 2.13,-3.912 0.003,-0.187 0.553,-1.025 1.224,-1.863 1.559,-1.949 2.042,-3.245 1.498,-4.021 -0.344,-0.49 -0.341,-0.608 0.025,-1.013 0.632,-0.698 0.45,-3.662 -0.288,-4.699 -0.838,-1.176 -1,-2.108 -0.501,-2.87 0.603,-0.92 0.174,-1.953 -0.9,-2.168 -0.918,-0.184 -1.583,-0.976 -1.583,-1.885 0,-1.623 3.896,2.54 4.527,4.836 0.16,0.582 0.476,1.506 0.702,2.054 0.984,2.384 -1.025,8.371 -4.786,14.265 -1.453,2.276 -2.187,3.89 -3.296,7.244 -1.214,3.676 -2.44,6.469 -3.374,7.694 -0.363,0.476 -0.904,1.435 -1.202,2.13 -0.298,0.695 -1.17,2.22 -1.937,3.386 a 166.005,166.005 0 0 0 -1.841,2.849 c -0.503,0.82 -8.01,1.206 -7.698,0.397 z m -14.829,-53.953 c -2.398,-1.325 -3.695,-3.46 -3.74,-6.161 -0.057,-3.367 -0.021,-3.183 -0.534,-2.757 -0.625,0.518 -1.148,1.9 -0.973,2.57 0.116,0.442 0.032,0.571 -0.37,0.571 -0.806,0 -1.298,-0.741 -2.197,-3.312 -0.457,-1.307 -1.107,-2.854 -1.444,-3.438 -1.015,-1.76 -1.452,-3.777 -1.595,-7.37 -0.074,-1.865 -0.265,-3.635 -0.425,-3.933 -0.798,-1.492 -0.837,-3.643 -0.066,-3.643 0.2,0 0.364,0.115 0.364,0.255 0,0.14 0.638,1.191 1.418,2.337 2.574,3.78 3.598,5.954 3.606,7.655 0.021,4.39 2.575,6.581 5.047,4.33 2.24,-2.04 3.463,-2.843 5.54,-3.64 0.8,-0.307 2.14,-0.824 2.977,-1.148 1.21,-0.47 1.602,-0.525 1.908,-0.271 0.225,0.187 0.698,0.25 1.14,0.153 0.522,-0.115 1.61,0.13 3.516,0.793 2.895,1.006 6.65,1.366 8.582,0.823 2.2,-0.618 6.339,-1.47 7.144,-1.469 0.291,0 -0.48,0.299 -1.714,0.663 -1.233,0.365 -2.305,0.759 -2.38,0.876 -0.24,0.37 -1.31,0.598 -4.476,0.955 -1.69,0.19 -3.607,0.524 -4.262,0.74 -0.655,0.217 -1.846,0.576 -2.646,0.798 -5.117,1.417 -9.212,2.812 -11.509,3.922 -1.455,0.702 -2.848,1.278 -3.094,1.278 -0.247,0 -0.782,0.3 -1.19,0.667 -0.873,0.782 0.208,0.727 1.49,-0.076 a 6.1,6.1 0 0 1 1.456,-0.608 c 0.445,-0.113 1.761,-0.574 2.926,-1.026 1.164,-0.451 2.533,-0.929 3.042,-1.061 0.51,-0.133 1.194,-0.322 1.522,-0.422 0.842,-0.256 0.754,0.189 -0.33,1.664 l -1.72,2.344 c -0.966,1.318 -0.98,1.524 -0.128,1.912 0.367,0.168 0.78,0.603 0.92,0.969 0.297,0.782 0.084,0.761 2.911,0.28 4.134,-0.702 10.946,-0.573 7.805,0.148 -0.436,0.1 -1.865,0.425 -3.175,0.721 -2.343,0.53 -2.787,0.647 -5.688,1.489 -4.482,1.302 -8.74,1.929 -9.657,1.422 z M 92.457,124.66 c -0.66,-0.66 -0.68,-1.634 -0.045,-2.208 0.546,-0.495 1.103,-0.577 1.103,-0.162 0,0.156 0.43,0.242 0.993,0.198 0.937,-0.073 0.996,-0.032 1.072,0.752 0.153,1.568 -1.997,2.545 -3.123,1.42 z"
       id="path1887" />
    <path
       fill="#122d33"
       d="m 76.583,188.43 c -2.692,-0.078 -4.636,-0.217 -4.32,-0.31 0.316,-0.092 0.806,-0.628 1.09,-1.19 0.284,-0.562 0.716,-1.405 0.961,-1.873 0.933,-1.778 -0.11,-2.406 -1.665,-1.002 -1.291,1.167 -1.29,1.167 -1.506,-0.279 -0.154,-1.026 -0.094,-1.298 0.403,-1.827 0.358,-0.38 0.628,-1.069 0.695,-1.771 0.068,-0.708 0.303,-1.302 0.61,-1.546 0.275,-0.219 0.694,-0.784 0.932,-1.257 0.452,-0.9 1.213,-1.17 1.213,-0.43 0,0.338 0.172,0.395 0.81,0.268 0.645,-0.13 0.932,-0.03 1.419,0.496 0.655,0.707 1.581,0.864 1.925,0.327 0.331,-0.518 1.865,-1.521 2.325,-1.521 a 0.66,0.66 0 0 0 0.569,-0.397 c 0.299,-0.78 0.572,-0.38 0.435,0.638 -0.133,0.996 0.668,1.88 1.698,1.874 0.677,-0.004 1.77,-1.274 1.44,-1.672 -0.537,-0.648 -0.25,-1.575 0.669,-2.159 0.461,-0.293 0.965,-0.801 1.119,-1.128 0.153,-0.328 0.405,-0.596 0.56,-0.596 0.155,0 0.257,0.268 0.229,0.596 -0.096,1.106 0.03,1.52 0.457,1.52 0.645,0 2.668,-2.188 2.833,-3.064 0.166,-0.886 0.634,-3.747 0.849,-5.194 0.277,-1.867 0.902,-1.671 1.246,0.391 0.54,3.233 0.473,6.826 -0.147,7.906 -0.486,0.847 -0.525,1.09 -0.246,1.539 0.182,0.293 0.33,0.832 0.33,1.198 0,1.215 1.406,0.32 1.751,-1.115 0.097,-0.404 0.409,-1.197 0.692,-1.762 0.284,-0.566 0.463,-1.306 0.398,-1.644 -0.08,-0.417 0.092,-0.81 0.534,-1.22 0.359,-0.334 0.728,-0.807 0.822,-1.053 0.093,-0.246 0.169,0.825 0.169,2.381 0,3.44 0.876,5.545 2.173,5.22 0.9,-0.227 0.712,0.845 -0.602,3.43 -1.016,1.999 -1.091,3.793 -0.229,5.46 0.553,1.07 -5.283,1.267 -22.64,0.766 z m 19.113,-5.091 c 0.502,0.023 0.814,-0.146 1.019,-0.551 0.162,-0.322 0.66,-0.895 1.105,-1.274 0.88,-0.75 0.864,-1.56 -0.03,-1.56 -0.292,0 -0.569,-0.235 -0.652,-0.552 -0.284,-1.088 -3.621,1.968 -3.621,3.317 0,0.508 0.62,0.963 1.05,0.769 0.223,-0.1 0.73,-0.167 1.13,-0.149 z m 31.555,5.102 c -0.855,-0.368 0.159,-0.645 1.58,-0.432 1.37,0.206 2.257,-0.159 2.257,-0.929 0,-0.29 0.197,-0.604 0.439,-0.696 0.372,-0.143 0.349,-0.202 -0.152,-0.388 a 1.457,1.457 0 0 0 -1.133,0.071 c -0.298,0.16 -0.974,0.286 -1.502,0.28 -0.881,-0.008 -3.162,1.232 -3.43,1.865 -0.111,0.266 -0.837,0.275 -0.836,0.01 10e-4,-0.109 0.675,-0.674 1.497,-1.256 1.756,-1.243 6.175,-5.136 6.175,-5.44 0,-0.116 0.426,-0.663 0.947,-1.215 3.627,-3.846 5.548,-12.55 4.393,-19.905 -0.348,-2.218 -0.055,-3.786 0.345,-1.843 0.223,1.088 1.13,3.098 1.692,3.751 0.38,0.444 0.366,0.57 -0.173,1.508 -0.746,1.295 -0.745,1.786 0.004,1.892 0.539,0.077 0.597,0.24 0.637,1.805 0.056,2.23 0.03,2.116 0.494,2.116 0.446,0 0.326,0.912 -0.279,2.117 -0.182,0.364 -0.47,1.176 -0.64,1.805 -0.475,1.768 -2.022,4.991 -2.738,5.708 -0.354,0.354 -0.947,1.426 -1.316,2.38 -0.369,0.956 -0.926,2.067 -1.239,2.47 -0.313,0.403 -1.07,1.508 -1.683,2.454 -0.852,1.314 -1.27,1.727 -1.772,1.752 -0.36,0.018 -1.192,0.104 -1.847,0.19 -0.655,0.087 -1.429,0.055 -1.72,-0.07 z m -86.114,-2.732 c -0.153,-0.182 -0.51,-0.642 -0.796,-1.023 -0.346,-0.464 -0.87,-0.749 -1.584,-0.863 -0.886,-0.142 -1.067,-0.274 -1.067,-0.776 0,-0.333 -0.143,-0.749 -0.319,-0.924 -0.362,-0.362 -0.314,-2.17 0.067,-2.552 0.397,-0.397 0.294,-1.157 -0.17,-1.25 -0.586,-0.12 0.559,-1.588 1.178,-1.512 0.239,0.03 0.792,-0.099 1.228,-0.284 0.437,-0.185 1.622,-0.472 2.634,-0.636 1.738,-0.283 1.923,-0.384 3.308,-1.794 0.806,-0.822 1.867,-1.734 2.355,-2.026 0.49,-0.292 1.413,-1.03 2.052,-1.64 1.217,-1.16 3.511,-1.894 3.224,-1.031 -0.067,0.203 -0.351,0.407 -0.63,0.452 -0.28,0.045 -0.805,0.41 -1.169,0.811 -0.364,0.401 -1.048,0.997 -1.521,1.325 -0.953,0.66 -1.073,1.112 -0.437,1.64 0.44,0.366 1.861,-0.227 4.388,-1.831 0.586,-0.372 1.175,-0.555 1.477,-0.46 0.277,0.089 1.436,-0.018 2.576,-0.236 1.464,-0.28 2.17,-0.315 2.408,-0.118 0.236,0.196 0.506,0.187 0.914,-0.03 0.465,-0.25 0.536,-0.242 0.364,0.036 -0.527,0.852 -1.306,1.56 -1.718,1.56 -0.247,0 -0.588,0.167 -0.759,0.373 -0.17,0.205 -0.893,0.513 -1.606,0.684 -1.598,0.384 -2.091,0.874 -1.536,1.527 0.215,0.252 0.543,0.845 0.73,1.318 0.381,0.962 0.567,1.025 1.41,0.481 1.926,-1.242 5.097,-2.329 7.044,-2.412 1.717,-0.074 2.081,-0.175 2.536,-0.707 1.054,-1.232 3.045,-1.534 3.045,-0.46 0,0.326 0.378,0.7 1.058,1.047 1.157,0.59 1.28,0.86 0.63,1.379 -0.235,0.187 -0.94,0.842 -1.568,1.455 -0.627,0.613 -1.436,1.19 -1.798,1.28 -0.718,0.18 -1.17,1.046 -1.29,2.474 -0.112,1.336 -0.827,1.665 -1.661,0.765 -0.651,-0.702 -0.675,-0.707 -1.461,-0.263 -0.814,0.459 -1.066,0.353 -1.396,-0.587 -0.047,-0.134 -0.436,-0.002 -0.864,0.293 a 37.03,37.03 0 0 1 -1.506,0.978 c -0.48,0.29 -0.728,0.664 -0.728,1.096 0,0.414 -0.15,0.655 -0.407,0.655 -0.225,0 -0.73,0.236 -1.125,0.525 -0.75,0.55 -2.423,0.255 -3.463,-0.609 -0.413,-0.342 -1.582,-0.268 -2.07,0.132 -0.175,0.143 -0.532,0.194 -0.794,0.113 -0.261,-0.08 -1.428,0.037 -2.592,0.262 l -2.778,0.536 c -0.364,0.07 -1.222,0.192 -1.907,0.272 -0.685,0.079 -1.385,0.31 -1.554,0.515 -0.382,0.46 -1.977,0.487 -2.352,0.04 z m -0.321,-12.518 c 0.153,-0.3 0.852,-1.053 1.553,-1.673 0.701,-0.62 1.766,-1.612 2.367,-2.206 1.095,-1.081 1.95,-1.233 1.95,-0.346 0,0.223 0.121,0.405 0.27,0.405 0.314,0 0.062,1.278 -0.357,1.808 -0.193,0.244 -0.786,0.326 -1.939,0.266 -1.651,-0.085 -1.668,-0.078 -2.892,1.103 -0.677,0.654 -1.106,0.943 -0.952,0.643 z m 41.059,-0.882 c 0,-0.458 0.65,-1.373 1.945,-2.74 1.057,-1.115 1.855,-3.42 1.976,-5.707 0.133,-2.533 -0.213,-3.307 -0.97,-2.164 -0.24,0.363 -0.706,0.913 -1.033,1.22 -0.327,0.309 -0.595,0.831 -0.595,1.161 0,0.968 -0.6,2.69 -0.988,2.839 -0.534,0.205 -0.616,-0.007 -0.356,-0.915 0.167,-0.58 0.133,-0.965 -0.117,-1.322 -0.227,-0.324 -0.266,-0.637 -0.111,-0.883 0.132,-0.209 0.243,-0.76 0.245,-1.224 0.002,-0.465 0.123,-0.918 0.268,-1.008 0.146,-0.09 0.265,-0.449 0.265,-0.797 0,-0.349 0.298,-0.932 0.661,-1.296 0.42,-0.419 0.662,-0.96 0.662,-1.475 0,-1.005 -0.711,-1.38 -1.218,-0.642 -0.191,0.278 -0.442,0.587 -0.557,0.686 -0.115,0.099 -0.924,0.842 -1.797,1.652 -1.913,1.774 -2.12,1.814 -1.827,0.35 0.463,-2.31 0.079,-5.225 -0.688,-5.225 -0.11,0 -0.692,0.754 -1.293,1.676 -2.067,3.173 -2.76,3.449 -3.025,1.207 -0.208,-1.752 -0.232,-1.768 -1.646,-1.08 -1.205,0.585 -1.707,0.287 -1.707,-1.013 0,-0.452 -0.876,-0.741 -1.439,-0.475 -1.564,0.74 -3.774,4.448 -2.65,4.448 0.537,0 0.706,0.457 0.387,1.053 -0.367,0.685 -1.369,0.688 -1.987,0.005 -0.546,-0.604 -0.986,-0.662 -1.688,-0.223 -0.706,0.44 -1.672,0.057 -1.037,-0.412 0.264,-0.193 0.396,-0.543 0.319,-0.84 -0.1,-0.39 0.257,-0.791 1.511,-1.7 0.904,-0.655 1.773,-1.311 1.931,-1.458 0.158,-0.147 1.27,-1.197 2.47,-2.332 1.32,-1.247 2.367,-2.034 2.646,-1.988 0.634,0.104 1.124,-0.246 1.124,-0.802 0,-0.255 0.555,-1.111 1.232,-1.903 2.42,-2.825 3.574,-6.419 4.041,-12.578 0.111,-1.47 0.271,-2.783 0.355,-2.918 0.083,-0.135 0.288,-1.241 0.454,-2.457 1.223,-8.928 7.71,-20.66 11.425,-20.66 0.222,0 0.797,-0.197 1.278,-0.437 1.226,-0.611 1.748,-0.236 1.633,1.175 -0.1,1.248 0.506,1.815 1.403,1.313 0.307,-0.171 0.13,0.18 -0.448,0.884 -0.527,0.642 -1.044,1.525 -1.15,1.96 -0.106,0.435 -0.534,1.229 -0.95,1.76 -3.257,4.162 -3.654,6.66 -1.803,11.336 0.764,1.932 0.707,4.357 -0.2,8.396 -0.575,2.553 -0.73,4.065 -0.866,8.405 -0.19,6.11 -0.132,5.743 -0.779,4.902 -0.502,-0.653 -0.502,-0.653 -0.82,0.046 -0.487,1.069 -0.12,2.592 0.624,2.592 0.39,0 0.94,0.444 1.627,1.312 0.572,0.721 1.284,1.346 1.583,1.389 0.51,0.073 0.546,0.271 0.596,3.253 0.029,1.746 0.07,3.472 0.092,3.836 0.022,0.364 -0.105,1.912 -0.282,3.44 -0.177,1.528 -0.378,3.397 -0.447,4.154 -0.111,1.226 -0.87,2.648 -0.87,1.63 0,-0.745 -1.307,-1.843 -1.849,-1.553 -0.274,0.146 -0.916,0.267 -1.425,0.267 -1.055,0 -3.243,1.204 -3.485,1.918 -0.21,0.618 -0.65,0.591 -0.65,-0.04 z m -34.396,-3.047 c 0,-0.195 0.178,-0.503 0.397,-0.685 0.511,-0.424 0.503,-0.79 -0.028,-1.178 -0.4,-0.292 2.43,-2.526 3.2,-2.526 0.124,0 0.436,-0.19 0.693,-0.422 1.428,-1.293 0.856,0.152 -0.603,1.523 -0.921,0.866 -1.69,1.687 -1.708,1.824 l -0.066,0.489 c -0.06,0.43 -1.885,1.375 -1.885,0.975 z m 61.584,-35.483 c -0.54,-0.366 -1.11,-0.908 -1.268,-1.203 -0.158,-0.295 -0.57,-0.644 -0.915,-0.775 -0.683,-0.26 -1.198,-2.274 -0.757,-2.959 0.152,-0.235 0.27,-0.004 0.358,0.709 0.107,0.85 0.25,1.075 0.734,1.144 0.562,0.08 0.59,0.016 0.433,-0.967 -0.144,-0.9 -0.086,-1.096 0.398,-1.356 0.312,-0.166 0.498,-0.414 0.414,-0.55 -0.275,-0.444 5.589,-2.9 6.93,-2.903 1.16,-0.002 2.664,-0.496 2.83,-0.93 a 0.648,0.648 0 0 1 0.556,-0.391 c 0.515,0 0.528,0.425 0.02,0.62 -0.211,0.081 -0.644,0.66 -0.961,1.285 -0.317,0.626 -1.037,1.69 -1.6,2.365 -1.237,1.485 -1.239,1.496 -0.163,1.6 0.722,0.07 0.874,0.203 0.946,0.826 0.108,0.945 0.503,1.088 1.937,0.702 0.634,-0.171 2.164,-0.354 3.401,-0.406 a 203.22,203.22 0 0 0 4.366,-0.241 c 2.502,-0.172 1.528,0.298 -1.899,0.916 -0.993,0.179 -3.054,0.682 -4.58,1.118 -6.837,1.952 -9.815,2.324 -11.18,1.396 z m -6.104,-5.629 c -0.23,-0.254 -0.792,-1.53 -1.25,-2.838 -0.456,-1.306 -1.104,-2.852 -1.44,-3.434 -1.092,-1.896 -1.46,-3.694 -1.46,-7.12 0,-2.665 -0.094,-3.414 -0.572,-4.568 -0.929,-2.24 -0.391,-3.66 0.68,-1.797 0.416,0.723 0.98,1.561 1.253,1.863 1.082,1.198 2.409,3.774 2.784,5.405 0.217,0.945 0.553,2.255 0.746,2.91 0.193,0.655 0.43,1.574 0.527,2.043 0.097,0.47 0.525,1.146 0.95,1.505 0.97,0.815 0.997,1.711 0.08,2.557 -0.8,0.738 -1.422,2.05 -1.422,3 0,0.857 -0.356,1.05 -0.876,0.475 z m 3.339,-2.157 c 0.319,-2.69 5.051,-7.687 7.282,-7.687 0.26,0 0.704,-0.174 0.987,-0.388 0.282,-0.214 0.776,-0.392 1.097,-0.397 0.32,-0.005 1.035,-0.316 1.587,-0.691 0.837,-0.57 1.019,-0.613 1.09,-0.265 0.064,0.314 0.414,0.418 1.402,0.418 0.724,0 1.638,0.162 2.031,0.36 0.393,0.197 1.131,0.436 1.64,0.53 3.139,0.583 4.28,1.707 2.228,2.195 -4.478,1.065 -10.393,3.014 -13.34,4.394 -1.382,0.648 -2.82,1.25 -3.194,1.34 -0.375,0.09 -1.124,0.465 -1.666,0.832 -1.304,0.885 -1.323,0.875 -1.144,-0.64 z"
       id="path1889" />
  </g>
</svg>
